PathFileType	4	(X/Y/Z)	Patient4_TMGait_0pt4_02_left_19.trc.trc
DataRate	CameraRate	NumFrames	NumMarkers	Units	OrigDataRate	OrigDataStartFrame	OrigNumFrames
76.086956521739	76.086956521739	4	33	mm	76.086956521739	1	       141
Frame#	Time	Sacral			L.Shoulder			Chest			R.Shoulder			Neck			R.ASIS			L.ASIS			R.Thigh.Superior			R.Thigh.Lateral			R.Thigh.Inferior			R.Patella			L.Thigh.Superior			L.Thigh.Lateral			L.Thigh.Inferior			L.Patella			L.Shank.Superior			L.Shank.Lateral			L.Shank.Inferior			R.Shank.Superior			R.Shank.Lateral			R.Shank.Inferior			R.Heel			R.Midfoot.Superior			R.Midfoot.Lateral			R.Toe			L.Heel			L.Midfoot.Lateral			L.Midfoot.Superior			L.Toe			L.Elbow			L.Wrist			R.Elbow			R.Wrist			
		X1	Y1	Z1	X2	Y2	Z2	X3	Y3	Z3	X4	Y4	Z4	X5	Y5	Z5	X6	Y6	Z6	X7	Y7	Z7	X8	Y8	Z8	X9	Y9	Z9	X10	Y10	Z10	X11	Y11	Z11	X12	Y12	Z12	X13	Y13	Z13	X14	Y14	Z14	X15	Y15	Z15	X16	Y16	Z16	X17	Y17	Z17	X18	Y18	Z18	X19	Y19	Z19	X20	Y20	Z20	X21	Y21	Z21	X22	Y22	Z22	X23	Y23	Z23	X24	Y24	Z24	X25	Y25	Z25	X26	Y26	Z26	X27	Y27	Z27	X28	Y28	Z28	X29	Y29	Z29	X30	Y30	Z30	X31	Y31	Z31	X32	Y32	Z32	X33	Y33	Z33	

1	25.480000000000	881.800347635356	1006.305052343267	542.926456890768	1045.453584255890	1440.330625125194	355.542716565865	1161.788018496101	1370.994996926445	506.589889466439	1092.778351198683	1440.020764407748	688.270662967101	1039.277556218018	1498.848445877154	513.541223977627	1120.253680425349	942.719752355128	639.376916710155	1083.500526483183	971.025129332782	368.615343211277	1155.636835406625	741.781247757143	611.907512375344	1072.729456941202	632.942624120878	673.222581667739	1149.934096502963	580.526211434320	594.017916930699	1148.469466178353	491.912641459841	601.102809229952	1168.677325661091	787.427791673061	380.935862712237	1116.682889701813	660.506903697522	302.634437683535	1227.806645806449	600.600727988394	347.864100830040	1243.197709509788	515.112571114245	338.066802204193	1186.246799338903	442.810418180785	334.124650348408	1050.106383784043	378.396643182777	294.117376004742	1064.844320757461	246.160310174369	343.921987275095	1117.057133837873	403.738294257437	606.723313693581	1040.901560807987	301.719538880899	666.418823514681	1081.147578579798	206.204962324803	602.813423811147	943.976163646960	43.770421155812	567.700127211969	1114.304114341084	97.488220621448	608.892545081249	1025.812679978589	37.372382557397	645.165916534042	1234.288604030306	43.788034816647	638.368710919781	891.752047449670	145.840820232603	392.506926093195	950.630071259270	114.849261466829	305.948153638289	1054.337463930598	142.599541757161	320.848010546247	1149.656787194500	48.641972022558	280.968800827547	995.925733916394	1091.736341915023	236.589128089098	1100.745949714628	852.175954993387	199.579225340838	1119.510839440216	1110.794154313659	845.314813066753	1339.193596354850	979.285370491473	813.127530316886	
2	25.493142857143	881.469087416654	1006.861147735033	544.936994600830	1043.781998836428	1440.579158736505	356.760239327537	1161.450089490189	1371.063348170197	506.672586888116	1094.284290647687	1440.167786326462	689.021075215906	1039.202538391867	1499.015234521370	514.836360759184	1120.174090000809	942.747696041072	639.624746340954	1081.738087458194	971.597827205211	369.079489989806	1153.352212110247	741.200584236034	611.526487891527	1069.913724765402	633.069602186641	673.684798390545	1145.700398619544	580.036666840288	593.775403332330	1143.412143204826	491.697286555778	600.919827016810	1167.316270018841	788.664659604508	381.418116221350	1116.074983260294	661.523618461493	303.367068282496	1226.845668797038	601.909998850846	349.307858444760	1243.541845940031	518.263935316192	339.319463057308	1190.580069650733	445.230664766866	334.580850511948	1059.805088566158	373.093086676987	293.645775383057	1083.124242302858	242.313339650564	342.269537157110	1112.042689238851	403.563907730284	606.663602555071	1035.855579806134	301.680416242534	666.325526478709	1075.881801175065	206.061462638530	602.678618465372	938.401678809872	43.753232591467	567.724520009719	1108.751970545190	97.473903501962	608.905349441020	1020.194579631053	37.366895234473	645.152555817300	1228.689554062434	43.729293392915	638.439154114940	918.353812947726	131.329488446822	389.810375933378	978.511994794861	104.963886662121	303.158563667291	1079.577482402814	138.830130000097	318.452424249420	1180.009155601250	51.936914113583	278.102967978495	989.689161317090	1092.432984676082	238.859309749228	1083.248338834069	849.349006741655	202.451236423347	1127.693900484755	1111.690965267720	845.223004244871	1351.274327755422	989.011100116448	809.574119068374	
3	25.506285714286	881.136175913134	1007.388830187139	546.886030123097	1042.152454937401	1440.802564151476	357.923913913458	1161.120444174320	1371.107847914205	506.725230681692	1095.757458209296	1440.289277519700	689.724989609239	1039.136187449988	1499.155908728135	516.085750364580	1120.066937671763	942.744867539595	639.841898230765	1080.015510097353	972.127001623786	369.520627436661	1151.096300734702	740.614238770553	611.128349311748	1067.137462605086	633.180476974004	674.120087289447	1141.513527918748	579.548770846161	593.522216928032	1138.412508165249	491.478769014759	600.726481104645	1165.860662662763	789.711288586380	381.941990708289	1115.297223259723	662.424834935358	304.054085554435	1225.620721028834	602.997042430389	350.833038216982	1243.614205513986	521.247540927104	340.670235985874	1194.668545842963	447.595480116097	335.101258022167	1069.495130289621	367.818840026575	293.076467947558	1101.319279212528	238.664577034006	340.649639699574	1107.083611865178	403.378549907663	606.590268336090	1030.863517381826	301.637423114234	666.238964385841	1070.656179926575	205.912349270783	602.536343078305	932.865550263493	43.732603287655	567.749384512028	1103.231320257542	97.445267682682	608.899605387223	1014.615790777971	37.360706630349	645.141010110882	1223.125069669627	43.671690133019	638.503885146169	945.029303765529	117.164522493223	386.990439866304	1006.524748719072	95.424057642786	300.344479261386	1104.822760534453	135.365552057134	316.134038569886	1210.295760101358	55.602205557832	275.515443427270	983.509708737263	1093.118854590033	241.061188465024	1065.982938664968	846.642551026107	205.380077277602	1135.809113929063	1112.569111212793	845.058791666482	1363.183356328066	998.756607514779	805.942556722487	
4	25.519428571429	880.797553437288	1007.863789110079	548.708318136808	1040.607608581531	1440.978711146191	358.971330498747	1160.806692500381	1371.107490462410	506.711362735120	1097.162983355580	1440.365815838837	690.327260805593	1039.083728370430	1499.249545156050	517.231475192159	1119.914215754975	942.687427475482	640.000510838638	1078.366556024988	972.574124188876	369.909332571126	1148.902714538744	740.018767441371	610.699254776192	1064.439532777569	633.259607277030	674.498309787343	1137.427062333023	579.062066534366	593.245293072224	1133.535251218472	491.251733142119	600.510218548171	1164.241377994084	790.424295703502	382.526221846715	1114.223660143722	663.117336916403	304.662836629233	1223.952518674914	603.699308486161	352.472164105146	1243.218674969047	523.930973526677	342.167234030944	1198.299204363060	449.853869573781	335.719328461503	1079.080414647709	362.652349095491	292.368497615139	1119.214971736440	235.415783386147	339.113348092722	1102.235959317213	403.172625967062	606.489454864739	1025.978265294235	301.586421166082	666.160174221655	1065.506829429150	205.753700921179	602.381226629191	927.400100735790	43.707085999338	567.775761164025	1097.769816648490	97.394638941590	608.864675037071	1009.109188058439	37.353164290464	645.132390800805	1217.625468716481	43.615209983801	638.559235311326	971.613868823458	103.759633051399	384.033287235201	1034.519848324517	86.589849251572	297.553274341767	1129.859300808088	132.481962700317	313.984958829335	1240.197630189565	59.895768462846	273.430961601793	977.440325339721	1093.790792920058	243.133477107058	1049.205802452825	844.178212057983	208.417144936562	1143.770778308126	1113.412202538123	844.731191916966	1374.714487932370	1008.547757142103	802.156826069917	
